# xmcd
#
# Track frame offsets:
#	150
#	15318
#	31834
#	44523
#	60899
#	77992
#	90886
#	106692
#	123945
#	139891
#	160045
#	172124
#	187977
#	199972
#	217941
#	239490
#	252480
#
# Disc length: 3565 seconds
#
# Revision: 2
# Processed by: cddbd v1.5.1PL2 Copyright (c) Steve Scherf et al.
# Submitted via: dBpowerAMP V4.0
#
DISCID=d70deb11
DTITLE=Various Artist - Country Tuis
DYEAR=2004
DGENRE=Country
TTITLE0=Steve Hofmeyr - Rhinestone Cowboy
TTITLE1=Theuns Jordaan - The Gambler
TTITLE2=Dozi - Tulsa Time
TTITLE3=Coleske - To make you feel my Love
TTITLE4=Anke - Any Man of mine
TTITLE5=Mathys Roets - You're my best friend
TTITLE6=Nianell - Loving Arms
TTITLE7=Thean - Somebody like you
TTITLE8=Nadine - Queen of hearts
TTITLE9=Guillaume - You'll think of me
TTITLE10=Kurt Darren - Let your love flow
TTITLE11=Karin - You light up my life
TTITLE12=Nicholis Louw - Arms of Mary
TTITLE13=Eden - Amazed
TTITLE14=Juanita du Plessis - Back home again
TTITLE15=Christo and Cobus - It must be love
TTITLE16=Patricia Lewis - Moonlight Stranger
EXTD=
EXTT0=
EXTT1=
EXTT2=
EXTT3=
EXTT4=
EXTT5=
EXTT6=
EXTT7=
EXTT8=
EXTT9=
EXTT10=
EXTT11=
EXTT12=
EXTT13=
EXTT14=
EXTT15=
EXTT16=
PLAYORDER=
